<svg width="39" height="48" viewBox="0 0 39 48" fill="none" xmlns="http://www.w3.org/2000/svg">
<path d="M19.265 47.1624C29.5057 47.1624 38.5299 39.938 38.5299 30.3055C38.5299 20.673 31.3056 15.8568 28.8974 13.4487C25.5114 10.0626 24.4474 5.61292 24.1423 2.55096C23.9734 0.855812 22.3376 -0.346386 20.9179 0.595161C18.1416 2.43636 14.2169 6.19418 12.0406 13.4487C10.4933 18.6063 12.0406 23.0811 12.0406 23.0811C12.0406 23.0811 9.63248 21.8771 8.42842 18.2649C8.0318 17.075 7.50454 15.6239 6.97573 14.2127C6.21466 12.1817 3.46929 12.1997 2.8004 14.2629C1.48093 18.3328 0 23.811 0 27.8974C0 39.938 9.02431 47.1624 19.265 47.1624Z" fill="#FF5C00"/>
</svg>
