<svg width="190" height="190" viewBox="0 0 190 190" fill="none" xmlns="http://www.w3.org/2000/svg">
<g clip-path="url(#clip0_878_3905)">
<path fill-rule="evenodd" clip-rule="evenodd" d="M78.3541 6.65654C87.9472 -1.51865 102.057 -1.51865 111.65 6.65654L123.517 16.7695C125.385 18.3619 127.709 19.3243 130.156 19.5196L145.698 20.7598C158.262 21.7625 168.239 31.7394 169.242 44.3035L170.482 59.8457C170.677 62.293 171.64 64.6163 173.232 66.4848L183.345 78.3519C191.52 87.945 191.52 102.054 183.345 111.648L173.232 123.515C171.64 125.383 170.677 127.706 170.482 130.154L169.242 145.696C168.239 158.26 158.262 168.237 145.698 169.24L130.156 170.48C127.709 170.675 125.385 171.637 123.517 173.23L111.65 183.343C102.057 191.518 87.9472 191.518 78.3541 183.343L66.487 173.23C64.6185 171.637 62.2952 170.675 59.8479 170.48L44.3056 169.24C31.7416 168.237 21.7647 158.26 20.762 145.696L19.5218 130.154C19.3265 127.706 18.3641 125.383 16.7717 123.515L6.65873 111.648C-1.51645 102.054 -1.51645 87.945 6.65873 78.3519L16.7717 66.4849C18.3641 64.6163 19.3265 62.293 19.5218 59.8457L20.762 44.3035C21.7647 31.7394 31.7416 21.7625 44.3057 20.7598L59.8479 19.5196C62.2952 19.3243 64.6185 18.3619 66.487 16.7695L78.3541 6.65654Z" fill="url(#paint0_linear_878_3905)"/>
<path fill-rule="evenodd" clip-rule="evenodd" d="M78.3541 6.65654C87.9472 -1.51865 102.057 -1.51865 111.65 6.65654L123.517 16.7695C125.385 18.3619 127.709 19.3243 130.156 19.5196L145.698 20.7598C158.262 21.7625 168.239 31.7394 169.242 44.3035L170.482 59.8457C170.677 62.293 171.64 64.6163 173.232 66.4848L183.345 78.3519C191.52 87.945 191.52 102.054 183.345 111.648L173.232 123.515C171.64 125.383 170.677 127.706 170.482 130.154L169.242 145.696C168.239 158.26 158.262 168.237 145.698 169.24L130.156 170.48C127.709 170.675 125.385 171.637 123.517 173.23L111.65 183.343C102.057 191.518 87.9472 191.518 78.3541 183.343L66.487 173.23C64.6185 171.637 62.2952 170.675 59.8479 170.48L44.3056 169.24C31.7416 168.237 21.7647 158.26 20.762 145.696L19.5218 130.154C19.3265 127.706 18.3641 125.383 16.7717 123.515L6.65873 111.648C-1.51645 102.054 -1.51645 87.945 6.65873 78.3519L16.7717 66.4849C18.3641 64.6163 19.3265 62.293 19.5218 59.8457L20.762 44.3035C21.7647 31.7394 31.7416 21.7625 44.3057 20.7598L59.8479 19.5196C62.2952 19.3243 64.6185 18.3619 66.487 16.7695L78.3541 6.65654Z" fill="url(#paint1_linear_878_3905)"/>
<path d="M95.0005 132.333C110.877 132.333 124.867 121.133 124.867 106.2C124.867 91.2668 113.667 83.8002 109.934 80.0668C104.684 74.8174 103.035 67.919 102.562 63.172C102.3 60.544 99.7639 58.6802 97.563 60.1399C93.2589 62.9943 87.1745 68.8201 83.8005 80.0668C81.4017 88.0627 83.8005 95.0002 83.8005 95.0002C83.8005 95.0002 80.0671 93.1335 78.2005 87.5335C77.5856 85.6888 76.7681 83.4391 75.9483 81.2513C74.7684 78.1026 70.5123 78.1305 69.4753 81.3291C67.4297 87.6388 65.1338 96.1317 65.1338 102.467C65.1338 121.133 79.1243 132.333 95.0005 132.333Z" fill="white"/>
</g>
<defs>
<linearGradient id="paint0_linear_878_3905" x1="217.881" y1="0.524942" x2="1.95748" y2="8.00734" gradientUnits="userSpaceOnUse">
<stop stop-color="#00C2FF"/>
<stop offset="1" stop-color="#0085FF"/>
</linearGradient>
<linearGradient id="paint1_linear_878_3905" x1="217.881" y1="0.524942" x2="1.95748" y2="8.00734" gradientUnits="userSpaceOnUse">
<stop stop-color="#FF8A00"/>
<stop offset="1" stop-color="#FF5C00"/>
</linearGradient>
<clipPath id="clip0_878_3905">
<rect width="190" height="190" rx="23" fill="white"/>
</clipPath>
</defs>
</svg>
