<svg width="84" height="84" viewBox="0 0 84 84" fill="none" xmlns="http://www.w3.org/2000/svg">
<path d="M54.601 27.7C52.3114 25.4333 48.5994 25.4333 46.3099 27.7L44.6516 29.3416C44.1937 29.7949 44.1937 30.5299 44.6516 30.9833L52.9427 39.1914C53.4006 39.6448 54.1431 39.6448 54.601 39.1914L56.2592 37.5498C58.5487 35.2832 58.5487 31.6082 56.2592 29.3416L54.601 27.7Z" fill="#01ACFF"/>
<path d="M41.3351 34.2665C40.8772 33.8132 40.1348 33.8132 39.6769 34.2665L27.793 46.0316C27.4342 46.3868 27.2014 46.8477 27.1297 47.3449L26.0242 55.0059C25.8031 56.5381 27.1297 57.8514 28.6774 57.6325L36.4157 56.5381C36.918 56.4671 37.3835 56.2367 37.7423 55.8815L49.6262 44.1164C50.0841 43.663 50.0841 42.9281 49.6262 42.4747L41.3351 34.2665Z" fill="#01ACFF"/>
<rect x="2" y="2" width="80" height="80" rx="16.6667" stroke="#01ACFF" stroke-width="4"/>
</svg>
