<svg width="84" height="81" viewBox="0 0 84 81" fill="none" xmlns="http://www.w3.org/2000/svg">
<rect x="2" y="17.5557" width="61.3333" height="61.3333" rx="16.6667" stroke="#01ACFF" stroke-width="4"/>
<rect x="20.6667" y="2" width="61.3333" height="61.3333" rx="16.6667" fill="white" stroke="#01ACFF" stroke-width="4"/>
<path d="M59.3584 22.765C60.2829 21.8747 61.596 21.5866 62.772 21.9007C63.3346 22.051 63.8658 22.3391 64.3081 22.765C65.3204 23.7398 65.583 25.1632 65.0959 26.3707C65.0897 26.386 65.0834 26.4012 65.077 26.4165C64.9061 26.8222 64.6498 27.2024 64.3081 27.5314L50.3081 41.0129C48.9413 42.3291 46.7252 42.3291 45.3584 41.0129L38.3584 34.2722C36.9915 32.9559 36.9915 30.8219 38.3584 29.5057C39.7252 28.1895 41.9413 28.1895 43.3081 29.5057L47.8333 33.8633L59.3584 22.765Z" fill="#01ACFF"/>
</svg>
