<svg width="48" height="48" viewBox="0 0 48 48" fill="none" xmlns="http://www.w3.org/2000/svg">
<path fill-rule="evenodd" clip-rule="evenodd" d="M7.2 0C3.22355 0 0 3.22355 0 7.2V40.8C0 44.7764 3.22355 48 7.2 48H40.8C44.7765 48 48 44.7765 48 40.8V16.8C48 13.6651 45.9965 10.9981 43.2 10.0097V7.2C43.2 3.22355 39.9765 0 36 0H7.2ZM7.2 4.8C5.87452 4.8 4.8 5.87452 4.8 7.2C4.8 8.52548 5.87452 9.6 7.2 9.6H38.4V7.2C38.4 5.87452 37.3255 4.8 36 4.8H7.2ZM36 24C33.349 24 31.2 26.149 31.2 28.8C31.2 31.451 33.349 33.6 36 33.6H40.8C42.1255 33.6 43.2 32.5255 43.2 31.2V26.4C43.2 25.0745 42.1255 24 40.8 24H36Z" fill="#01ACFF"/>
</svg>
