<svg width="42" height="52" viewBox="0 0 42 52" fill="none" xmlns="http://www.w3.org/2000/svg">
    <path d="M21 52C32.163 52 42 44.2 42 33.8C42 23.4 34.125 18.2 31.5 15.6C26.9303 11.0738 26.2404 4.78735 26.1968 1.7633C26.1845 0.915283 25.3809 0.29707 24.6211 0.673973C21.8009 2.07306 16.0321 6.00204 13.125 15.6C11.4384 21.1686 13.125 26 13.125 26C13.125 26 10.5 24.7 9.1875 20.8C8.42372 18.5305 7.21548 15.3805 6.33871 13.1434C5.94575 12.1407 4.56801 12.1445 4.20016 13.1566C2.66807 17.3723 0 25.528 0 31.2C0 44.2 9.83706 52 21 52Z"
          fill="currentColor"/>
</svg>
