<svg width="66" height="82" viewBox="0 0 66 82" fill="none" xmlns="http://www.w3.org/2000/svg">
<path d="M33.0001 82C50.5419 82 66 69.7 66 53.3C66 36.9 53.625 28.7 49.5 24.6C42.389 17.5321 41.2567 7.74245 41.1687 2.92163C41.143 1.51801 39.8114 0.495796 38.5585 1.12895C34.0809 3.39159 25.1484 9.61338 20.625 24.6C17.9746 33.3812 20.625 41 20.625 41C20.625 41 16.5 38.95 14.4375 32.8C13.2635 29.2992 11.4211 24.4699 10.0517 20.9589C9.40332 19.2965 7.12204 19.2993 6.51683 20.9779C4.09719 27.6889 0 40.3581 0 49.2C0 69.7 15.4582 82 33.0001 82Z" fill="url(#paint0_linear_383_1304)"/>
<defs>
<linearGradient id="paint0_linear_383_1304" x1="75.9216" y1="82.0001" x2="0.467675" y2="79.8956" gradientUnits="userSpaceOnUse">
<stop stop-color="#FF8A00"/>
<stop offset="1" stop-color="#FF5C00"/>
</linearGradient>
</defs>
</svg>
