<svg width="6" height="26" viewBox="0 0 6 26" fill="none" xmlns="http://www.w3.org/2000/svg">
<path fill-rule="evenodd" clip-rule="evenodd" d="M3 10.5C1.34314 10.5 -1.6671e-06 11.8432 -1.81195e-06 13.5L-2.59875e-06 22.5C-2.7436e-06 24.1569 1.34314 25.5 3 25.5C4.65686 25.5 6 24.1569 6 22.5L6 13.5C6 11.8432 4.65686 10.5 3 10.5ZM3 0.5C1.34315 0.5 -7.92875e-07 1.84315 -9.37722e-07 3.5C-1.08257e-06 5.15686 1.34315 6.5 3 6.5C4.65685 6.5 6 5.15686 6 3.5C6 1.84315 4.65685 0.5 3 0.5Z" fill="currentColor"/>
</svg>
