<svg width="191" height="191" viewBox="0 0 191 191" fill="none" xmlns="http://www.w3.org/2000/svg">
<path fill-rule="evenodd" clip-rule="evenodd" d="M81.3044 20.1734C89.4843 13.2026 101.515 13.2026 109.695 20.1734L119.814 28.7966C121.407 30.1544 123.388 30.9749 125.475 31.1414L138.727 32.199C149.44 33.0539 157.948 41.561 158.802 52.2741L159.86 65.5267C160.027 67.6134 160.847 69.5944 162.205 71.1877L170.828 81.3065C177.799 89.4863 177.799 101.517 170.828 109.697L162.205 119.816C160.847 121.409 160.027 123.39 159.86 125.477L158.802 138.729C157.948 149.442 149.44 157.95 138.727 158.805L125.475 159.862C123.388 160.029 121.407 160.849 119.814 162.207L109.695 170.83C101.515 177.801 89.4843 177.801 81.3044 170.83L71.1857 162.207C69.5924 160.849 67.6114 160.029 65.5246 159.862L52.2721 158.805C41.559 157.95 33.0519 149.442 32.197 138.729L31.1394 125.477C30.9729 123.39 30.1523 121.409 28.7945 119.816L20.1714 109.697C13.2006 101.517 13.2006 89.4863 20.1714 81.3065L28.7945 71.1877C30.1523 69.5944 30.9729 67.6134 31.1394 65.5267L32.197 52.2741C33.0519 41.561 41.559 33.0539 52.2721 32.199L65.5246 31.1414C67.6114 30.9749 69.5924 30.1544 71.1857 28.7966L81.3044 20.1734Z" fill="white"/>
<path d="M95.5 127.333C109.037 127.333 120.967 117.783 120.967 105.05C120.967 92.3163 111.417 85.9497 108.233 82.7663C100.683 75.2164 101.867 63.6663 101.867 63.6663C101.867 63.6663 90.725 66.8497 85.95 82.7663C83.9046 89.5843 85.95 95.4997 85.95 95.4997C85.95 95.4997 82.7667 93.908 81.175 89.133C79.5833 84.358 76.4 76.3997 76.4 76.3997C76.4 76.3997 70.0333 92.1248 70.0333 101.866C70.0333 117.783 81.9627 127.333 95.5 127.333Z" fill="url(#paint0_linear_270_812)"/>
<defs>
<linearGradient id="paint0_linear_270_812" x1="128.623" y1="127.333" x2="70.3937" y2="125.719" gradientUnits="userSpaceOnUse">
<stop stop-color="#FF8A00"/>
<stop offset="1" stop-color="#FF5C00"/>
</linearGradient>
</defs>
</svg>
