<svg width="438" height="127" viewBox="0 0 438 127" fill="none" xmlns="http://www.w3.org/2000/svg">
<path d="M159.013 79.1414H167.604V50.4224H179.241V42.9305H147.426V50.4224H159.013V79.1414ZM193.662 70.7005C192.713 72.2988 190.765 73.3976 187.619 73.3976C184.622 73.3976 181.675 71.5995 181.426 67.8036H201.354C201.903 58.214 196.459 51.4713 187.519 51.4713C179.677 51.4713 173.135 56.9654 173.135 65.5561C173.135 74.4964 179.128 79.7907 187.869 79.7907C193.213 79.7907 198.857 77.0436 201.254 70.7005H193.662ZM187.519 57.7645C190.666 57.7645 193.013 59.4127 193.163 62.809H181.525C181.975 59.2629 184.572 57.7645 187.519 57.7645ZM228.131 52.2704H203.008V79.1414H211.249V58.1141H219.89V79.1414H228.131V52.2704ZM256.741 52.2704H235.064L234.614 60.6614C234.065 71.1001 232.866 73.2977 230.119 73.2977H229.37V79.1414H230.918C238.51 79.1414 241.607 74.4464 242.406 60.6614L242.556 58.1141H248.499V79.1414H256.741V52.2704ZM272.564 57.8644C275.811 57.8644 278.408 59.8622 278.408 65.606C278.408 71.2499 275.91 73.3976 272.564 73.3976C269.218 73.3976 266.72 71.2499 266.72 65.606C266.72 59.8622 269.318 57.8644 272.564 57.8644ZM272.564 51.4713C265.122 51.4713 258.329 55.8665 258.329 65.606C258.329 75.3455 265.122 79.7907 272.564 79.7907C280.006 79.7907 286.799 75.3455 286.799 65.606C286.799 55.8665 280.006 51.4713 272.564 51.4713Z" fill="#111111"/>
<path d="M298.1 79.1414L301.796 61.6103H301.845L310.586 79.1414H320.026L310.986 60.9111L327.018 42.9305H316.929L302.245 59.6624H302.195L305.691 42.9305H297.151L289.559 79.1414H298.1ZM336.286 79.1414C344.127 79.1414 348.223 75.8949 348.223 69.7515C348.223 67.3541 346.724 65.8557 344.976 65.2064C347.324 64.1576 349.321 61.6603 349.321 59.0131C349.321 53.9686 344.826 52.2704 338.733 52.2704H326.246L320.553 79.1414H336.286ZM330.841 67.6538H336.086C338.883 67.6538 340.131 68.5029 340.131 70.1011C340.131 71.9491 338.983 73.5974 335.836 73.5974H329.643L330.841 67.6538ZM332.939 57.8144H337.834C340.231 57.8144 341.28 58.6136 341.28 60.0121C341.28 61.4605 340.281 63.1087 337.684 63.1087H331.84L332.939 57.8144ZM368.307 62.1597C356.669 63.2086 348.678 65.5561 348.678 72.6484C348.678 77.0436 352.374 79.7907 356.919 79.7907C360.765 79.7907 363.462 78.6918 365.859 75.8949L365.26 79.1414H373.351C373.351 76.8938 374.2 71.9991 375 68.5528L376.248 62.7091C376.448 61.7602 376.548 60.8611 376.548 60.0121C376.548 54.2683 371.953 51.5212 364.91 51.5212C356.669 51.5212 352.124 55.9664 351.225 60.961H358.917C359.316 58.3638 361.664 57.0153 364.361 57.0153C366.908 57.0153 368.606 57.9143 368.606 60.2618C368.606 60.7612 368.556 61.2607 368.407 61.7602L368.307 62.1597ZM367.308 67.8536C366.259 72.7982 363.912 74.1967 360.915 74.1967C358.667 74.1967 357.419 73.1478 357.419 71.5995C357.419 69.1522 359.117 67.8536 367.508 66.9046L367.308 67.8536ZM386.21 67.7537C386.21 64.1076 388.207 58.0142 393.502 58.0142C396.648 58.0142 398.147 60.5115 398.147 63.9078C398.147 68.353 396.249 73.3476 391.054 73.3476C387.858 73.3476 386.21 70.8004 386.21 67.7537ZM389.756 52.2704H381.565L374.023 87.8819H382.264L384.961 75.0957C386.01 77.4432 388.457 79.7407 392.603 79.7407C401.793 79.7407 406.687 70.9003 406.687 62.6092C406.687 56.0164 402.742 51.6211 396.898 51.6211C394.351 51.6211 391.354 52.5202 389.107 55.467L389.756 52.2704ZM433.137 85.2847L435.634 73.2977H431.289L435.784 52.2704H427.543L423.048 73.2977H414.407L418.902 52.2704H410.661L404.967 79.1414H426.544L425.245 85.2847H433.137Z" fill="#111111"/>
<path fill-rule="evenodd" clip-rule="evenodd" d="M52.7826 4.1014C59.1996 -1.36713 68.6377 -1.36713 75.0547 4.1014L82.9928 10.8662C84.2427 11.9314 85.7968 12.5751 87.4339 12.7057L97.8304 13.5354C106.235 14.206 112.908 20.8798 113.579 29.2841L114.409 39.6806C114.539 41.3177 115.183 42.8718 116.248 44.1217L123.013 52.0598C128.482 58.4768 128.482 67.9149 123.013 74.3319L116.248 82.27C115.183 83.5199 114.539 85.074 114.409 86.711L113.579 97.1075C112.908 105.512 106.235 112.186 97.8304 112.856L87.4338 113.686C85.7968 113.817 84.2427 114.46 82.9928 115.525L75.0547 122.29C68.6377 127.759 59.1996 127.759 52.7826 122.29L44.8445 115.525C43.5946 114.46 42.0405 113.817 40.4035 113.686L30.007 112.856C21.6026 112.186 14.9289 105.512 14.2582 97.1075L13.4286 86.711C13.2979 85.074 12.6542 83.5199 11.589 82.27L4.82424 74.3319C-0.644294 67.9149 -0.644295 58.4768 4.82424 52.0598L11.589 44.1217C12.6542 42.8718 13.2979 41.3177 13.4286 39.6806L14.2582 29.2841C14.9289 20.8798 21.6026 14.206 30.007 13.5354L40.4035 12.7057C42.0405 12.5751 43.5946 11.9314 44.8445 10.8662L52.7826 4.1014Z" fill="url(#paint0_linear_270_1528)"/>
<path fill-rule="evenodd" clip-rule="evenodd" d="M52.7826 4.1014C59.1996 -1.36713 68.6377 -1.36713 75.0547 4.1014L82.9928 10.8662C84.2427 11.9314 85.7968 12.5751 87.4339 12.7057L97.8304 13.5354C106.235 14.206 112.908 20.8798 113.579 29.2841L114.409 39.6806C114.539 41.3177 115.183 42.8718 116.248 44.1217L123.013 52.0598C128.482 58.4768 128.482 67.9149 123.013 74.3319L116.248 82.27C115.183 83.5199 114.539 85.074 114.409 86.711L113.579 97.1075C112.908 105.512 106.235 112.186 97.8304 112.856L87.4338 113.686C85.7968 113.817 84.2427 114.46 82.9928 115.525L75.0547 122.29C68.6377 127.759 59.1996 127.759 52.7826 122.29L44.8445 115.525C43.5946 114.46 42.0405 113.817 40.4035 113.686L30.007 112.856C21.6026 112.186 14.9289 105.512 14.2582 97.1075L13.4286 86.711C13.2979 85.074 12.6542 83.5199 11.589 82.27L4.82424 74.3319C-0.644294 67.9149 -0.644295 58.4768 4.82424 52.0598L11.589 44.1217C12.6542 42.8718 13.2979 41.3177 13.4286 39.6806L14.2582 29.2841C14.9289 20.8798 21.6026 14.206 30.007 13.5354L40.4035 12.7057C42.0405 12.5751 43.5946 11.9314 44.8445 10.8662L52.7826 4.1014Z" fill="url(#paint1_linear_270_1528)"/>
<path d="M63.9188 88.1698C74.5387 88.1698 83.8972 80.6779 83.8972 70.6887C83.8972 60.6995 76.4053 55.7049 73.908 53.2076C70.3965 49.6962 69.2931 45.0817 68.9768 41.9064C68.8016 40.1484 67.1052 38.9017 65.6329 39.8781C62.7538 41.7875 58.6838 45.6845 56.4269 53.2076C54.8223 58.5563 56.4269 63.1968 56.4269 63.1968C56.4269 63.1968 53.9296 61.9482 52.6809 58.2022C52.2696 56.9683 51.7228 55.4634 51.1745 54C50.3852 51.8937 47.5382 51.9124 46.8445 54.052C45.4762 58.2727 43.9404 63.9537 43.9404 68.1914C43.9404 80.6779 53.2989 88.1698 63.9188 88.1698Z" fill="white"/>
<defs>
<linearGradient id="paint0_linear_270_1528" x1="146.115" y1="-0.000136674" x2="1.67948" y2="5.00498" gradientUnits="userSpaceOnUse">
<stop stop-color="#00C2FF"/>
<stop offset="1" stop-color="#0085FF"/>
</linearGradient>
<linearGradient id="paint1_linear_270_1528" x1="146.115" y1="-0.000136674" x2="1.67948" y2="5.00498" gradientUnits="userSpaceOnUse">
<stop stop-color="#FF8A00"/>
<stop offset="1" stop-color="#FF5C00"/>
</linearGradient>
</defs>
</svg>
