<svg width="72" height="60" viewBox="0 0 72 60" fill="none" xmlns="http://www.w3.org/2000/svg">
<path fill-rule="evenodd" clip-rule="evenodd" d="M30.6488 1.60459C33.7323 -1.02315 38.2675 -1.02315 41.351 1.60459L45.1654 4.8552C45.766 5.36704 46.5128 5.67636 47.2994 5.73914L52.2951 6.1378C56.3336 6.46007 59.5404 9.66694 59.8627 13.7054L60.2614 18.7011C60.3241 19.4877 60.6334 20.2345 61.1453 20.8351L64.3959 24.6495C67.0236 27.733 67.0236 32.2682 64.3959 35.3517L61.1453 39.1661C60.6334 39.7667 60.3241 40.5135 60.2614 41.3001L59.8627 46.2958C59.5404 50.3343 56.3336 53.5412 52.2951 53.8634L47.2994 54.2621C46.5128 54.3249 45.766 54.6342 45.1654 55.146L41.351 58.3966C38.2675 61.0244 33.7323 61.0244 30.6488 58.3966L26.8344 55.146C26.2338 54.6342 25.487 54.3249 24.7004 54.2621L19.7047 53.8634C15.6662 53.5412 12.4593 50.3343 12.1371 46.2958L11.7384 41.3001C11.6756 40.5135 11.3663 39.7667 10.8545 39.1661L7.60386 35.3517C4.97612 32.2682 4.97612 27.733 7.60386 24.6495L10.8545 20.8351C11.3663 20.2345 11.6756 19.4877 11.7384 18.7011L12.1371 13.7054C12.4593 9.66694 15.6662 6.46007 19.7047 6.1378L24.7004 5.73914C25.487 5.67636 26.2338 5.36704 26.8344 4.8552L30.6488 1.60459Z" fill="url(#paint0_linear_270_1388)"/>
<path d="M36 42C41.1031 42 45.6 38.4 45.6 33.6C45.6 28.8 42 26.4 40.8 25.2C39.1126 23.5127 38.5825 21.2953 38.4304 19.7695C38.3463 18.9248 37.5311 18.3257 36.8236 18.7949C35.4402 19.7124 33.4845 21.585 32.4 25.2C31.6289 27.7701 32.4 30 32.4 30C32.4 30 31.2 29.4 30.6 27.6C30.4023 27.0071 30.1396 26.2839 29.8761 25.5807C29.4968 24.5686 28.1288 24.5776 27.7954 25.6057C27.1379 27.6338 26.4 30.3637 26.4 32.4C26.4 38.4 30.8969 42 36 42Z" fill="white"/>
<defs>
<linearGradient id="paint0_linear_270_1388" x1="75.4966" y1="-0.366277" x2="6.09274" y2="2.03878" gradientUnits="userSpaceOnUse">
<stop stop-color="#FF8A00"/>
<stop offset="1" stop-color="#FF5C00"/>
</linearGradient>
</defs>
</svg>
