<svg width="48" height="55" viewBox="0 0 48 55" fill="none" xmlns="http://www.w3.org/2000/svg">
<path fill-rule="evenodd" clip-rule="evenodd" d="M5.47018 5.74387C2.20344 6.83278 0 9.88989 0 13.3333V27.5673C0 42.2393 14.8272 51.1452 21.1732 54.285C22.9667 55.1724 25.0333 55.1724 26.8268 54.285C33.1728 51.1452 48 42.2393 48 27.5673V13.3333C48 9.88989 45.7966 6.83278 42.5298 5.74387L26.5298 0.410533C24.8877 -0.136845 23.1123 -0.136844 21.4702 0.410535L5.47018 5.74387ZM33.8856 24.1193C34.927 23.0779 34.927 21.3895 33.8856 20.3481C32.8442 19.3067 31.1558 19.3067 30.1144 20.3481L21.3333 29.1292L17.8856 25.6814C16.8442 24.64 15.1558 24.64 14.1144 25.6814C13.073 26.7228 13.073 28.4113 14.1144 29.4527L17.9392 33.2775C19.8137 35.152 22.8529 35.152 24.7274 33.2775L33.8856 24.1193Z" fill="#FF3E3E"/>
</svg>
