<svg width="368" height="280" viewBox="0 0 368 280" fill="none" xmlns="http://www.w3.org/2000/svg">
<g clip-path="url(#clip0_341_1405)">
<rect width="368" height="280" rx="24" fill="#C1C1C1"/>
<path fill-rule="evenodd" clip-rule="evenodd" d="M173.23 81.9894C179.551 76.6025 188.848 76.6025 195.169 81.9894L202.989 88.6531C204.22 89.7024 205.751 90.3365 207.364 90.4652L217.605 91.2824C225.884 91.9431 232.458 98.5172 233.119 106.796L233.936 117.037C234.064 118.65 234.699 120.181 235.748 121.412L242.412 129.231C247.798 135.553 247.798 144.85 242.412 151.171L235.748 158.99C234.699 160.222 234.064 161.753 233.936 163.365L233.119 173.606C232.458 181.885 225.884 188.459 217.605 189.12L207.364 189.937C205.751 190.066 204.22 190.7 202.989 191.749L195.169 198.413C188.848 203.8 179.551 203.8 173.23 198.413L165.41 191.749C164.179 190.7 162.648 190.066 161.036 189.937L150.795 189.12C142.516 188.459 135.942 181.885 135.281 173.606L134.464 163.365C134.335 161.753 133.701 160.222 132.652 158.99L125.988 151.171C120.601 144.85 120.601 135.553 125.988 129.231L132.652 121.412C133.701 120.181 134.335 118.65 134.464 117.037L135.281 106.796C135.942 98.5172 142.516 91.9431 150.795 91.2824L161.036 90.4652C162.648 90.3365 164.179 89.7024 165.41 88.6531L173.23 81.9894Z" fill="url(#paint0_linear_341_1405)"/>
<path fill-rule="evenodd" clip-rule="evenodd" d="M173.23 81.9894C179.551 76.6025 188.848 76.6025 195.169 81.9894L202.989 88.6531C204.22 89.7024 205.751 90.3365 207.364 90.4652L217.605 91.2824C225.884 91.9431 232.458 98.5172 233.119 106.796L233.936 117.037C234.064 118.65 234.699 120.181 235.748 121.412L242.412 129.231C247.798 135.553 247.798 144.85 242.412 151.171L235.748 158.99C234.699 160.222 234.064 161.753 233.936 163.365L233.119 173.606C232.458 181.885 225.884 188.459 217.605 189.12L207.364 189.937C205.751 190.066 204.22 190.7 202.989 191.749L195.169 198.413C188.848 203.8 179.551 203.8 173.23 198.413L165.41 191.749C164.179 190.7 162.648 190.066 161.036 189.937L150.795 189.12C142.516 188.459 135.942 181.885 135.281 173.606L134.464 163.365C134.335 161.753 133.701 160.222 132.652 158.99L125.988 151.171C120.601 144.85 120.601 135.553 125.988 129.231L132.652 121.412C133.701 120.181 134.335 118.65 134.464 117.037L135.281 106.796C135.942 98.5172 142.516 91.9431 150.795 91.2824L161.036 90.4652C162.648 90.3365 164.179 89.7024 165.41 88.6531L173.23 81.9894Z" fill="#EAEAEA"/>
<path opacity="0.2" d="M184.2 164.801C194.661 164.801 203.88 157.421 203.88 147.581C203.88 137.741 196.5 132.821 194.04 130.361C190.581 126.902 189.494 122.356 189.182 119.228C189.01 117.497 187.339 116.269 185.889 117.23C183.052 119.111 179.043 122.95 176.82 130.361C175.239 135.63 176.82 140.201 176.82 140.201C176.82 140.201 174.36 138.971 173.13 135.281C172.725 134.065 172.186 132.583 171.646 131.141C170.869 129.066 168.064 129.085 167.381 131.193C166.033 135.35 164.52 140.946 164.52 145.121C164.52 157.421 173.739 164.801 184.2 164.801Z" fill="#111111"/>
</g>
<defs>
<linearGradient id="paint0_linear_341_1405" x1="265.168" y1="77.9491" x2="122.89" y2="82.8795" gradientUnits="userSpaceOnUse">
<stop stop-color="#00C2FF"/>
<stop offset="1" stop-color="#0085FF"/>
</linearGradient>
<clipPath id="clip0_341_1405">
<rect width="368" height="280" fill="white"/>
</clipPath>
</defs>
</svg>
