<svg width="73" height="73" viewBox="0 0 73 73" fill="none" xmlns="http://www.w3.org/2000/svg">
<path d="M30.8301 11.6902C32.7238 6.24219 40.4286 6.24219 42.3223 11.6902L45.1983 19.964C46.0337 22.3673 48.2765 23.9969 50.8204 24.0487L59.578 24.2272C65.3445 24.3447 67.7254 31.6723 63.1293 35.1569L56.1491 40.4489C54.1216 41.9861 53.2649 44.6227 54.0017 47.0581L56.5382 55.4422C58.2084 60.9628 51.9751 65.4916 47.2408 62.1972L40.0509 57.194C37.9624 55.7406 35.19 55.7406 33.1015 57.194L25.9116 62.1971C21.1773 65.4916 14.944 60.9628 16.6142 55.4422L19.1507 47.0581C19.8875 44.6227 19.0308 41.9861 17.0032 40.4489L10.0231 35.1569C5.42694 31.6724 7.80783 24.3447 13.5744 24.2272L22.332 24.0487C24.8758 23.9969 27.1187 22.3673 27.9541 19.964L30.8301 11.6902Z" fill="url(#paint0_linear_270_1523)"/>
<defs>
<linearGradient id="paint0_linear_270_1523" x1="74.2587" y1="7.60413" x2="8.04925" y2="9.99058" gradientUnits="userSpaceOnUse">
<stop stop-color="#00C2FF"/>
<stop offset="1" stop-color="#0085FF"/>
</linearGradient>
</defs>
</svg>
