<svg width="24" height="24" viewBox="0 0 24 24" fill="none" xmlns="http://www.w3.org/2000/svg">
<path fill-rule="evenodd" clip-rule="evenodd" d="M11.5441 15.9713C10.9042 16.5946 10.2699 17.2076 9.64147 17.8253C9.42176 18.0417 9.17468 18.1613 8.85935 18.1447C8.64412 18.1333 8.52373 18.0387 8.45764 17.8346C7.97612 16.3402 7.4876 14.8496 7.00868 13.3537C6.96219 13.2086 6.89351 13.1381 6.74655 13.0927C5.61223 12.7463 4.48012 12.3918 3.34986 12.0326C3.17594 11.9772 3.00055 11.9048 2.85027 11.8026C2.61801 11.6453 2.58404 11.3886 2.7923 11.204C2.98467 11.0337 3.21434 10.8853 3.45288 10.7908C4.83939 10.2414 6.2333 9.70966 7.62497 9.17318C11.1568 7.80952 14.6886 6.447 18.2209 5.08338C18.8925 4.8238 19.4088 5.18935 19.3389 5.91566C19.2943 6.38017 19.1739 6.83729 19.0768 7.2959C18.3099 10.9171 17.5422 14.5386 16.7712 18.1591C16.588 19.0187 15.9843 19.2432 15.2769 18.7215C14.092 17.8482 12.9082 16.972 11.724 16.0972C11.6675 16.0563 11.6088 16.0168 11.5441 15.9713ZM8.88449 17.0709C8.89778 17.0673 8.91106 17.0636 8.92435 17.0603C8.93172 17.0262 8.94248 16.993 8.94544 16.9594C9.02149 16.1386 9.10195 15.3181 9.16804 14.4958C9.18284 14.3126 9.24561 14.1827 9.38334 14.0593C10.4756 13.0827 11.5612 12.0998 12.6489 11.119C13.8531 10.0331 15.0575 8.94827 16.2572 7.85789C16.3314 7.79069 16.3624 7.67622 16.4134 7.58317C16.3004 7.57099 16.1793 7.52557 16.0766 7.55215C15.9367 7.58835 15.8041 7.66958 15.6793 7.74823C13.0219 9.42199 10.3667 11.0987 7.70731 12.7692C7.55708 12.8638 7.52899 12.9439 7.58619 13.109C7.78228 13.672 7.9606 14.2403 8.14563 14.8074C8.39192 15.5622 8.6382 16.3166 8.88449 17.0709Z" fill="white"/>
</svg>
