<svg width="24" height="24" viewBox="0 0 24 24" fill="none" xmlns="http://www.w3.org/2000/svg">
<path d="M10.326 4.002L10.812 4H13.188L13.6747 4.002L14.284 4.00867L14.5727 4.01333L14.8513 4.02067L15.12 4.03L15.3787 4.04067L15.628 4.05467L15.868 4.07134L16.098 4.09134L16.32 4.11334C17.48 4.24401 18.2753 4.52402 18.8753 5.12405C19.4753 5.72407 19.7553 6.51877 19.886 7.67949L19.9087 7.9015L19.928 8.13217L19.9447 8.37218L19.958 8.62086L19.9747 9.01288L19.9827 9.28622L19.9913 9.71557L19.9973 10.3256L20 10.979L19.9993 13.1877L19.9973 13.6744L19.9907 14.2838L19.986 14.5724L19.9787 14.8511L19.9693 15.1198L19.9587 15.3785L19.9447 15.6278L19.928 15.8678L19.908 16.0978L19.886 16.3198C19.7553 17.4799 19.4753 18.2753 18.8753 18.8753C18.2753 19.4753 17.4807 19.7553 16.32 19.886L16.098 19.9087L15.8673 19.928L15.6273 19.9447L15.3787 19.958L14.9867 19.9747L14.7133 19.9827L14.284 19.9913L13.674 19.9973L13.0207 20L10.812 19.9993L10.3253 19.9973L9.716 19.9907L9.42733 19.986L9.14867 19.9787L8.88 19.9693L8.62133 19.9587L8.372 19.9447L8.132 19.928L7.902 19.908L7.68 19.886C6.52 19.7553 5.72467 19.4753 5.12467 18.8753C4.52467 18.2753 4.24467 17.4806 4.114 16.3198L4.09133 16.0978L4.072 15.8672L4.05533 15.6272L4.042 15.3785L4.02533 14.9865L4.01733 14.7131L4.00867 14.2838L4.00267 13.6737L4 13.0204L4.00067 10.8116L4.00267 10.3249L4.00933 9.71557L4.014 9.42689L4.02133 9.14821L4.03067 8.87954L4.04133 8.62086L4.05533 8.37152L4.072 8.13151L4.092 7.9015L4.114 7.67949C4.24467 6.51944 4.52467 5.72407 5.12467 5.12405C5.72467 4.52402 6.51933 4.24401 7.68 4.11334L7.902 4.09067L8.13267 4.07134L8.37267 4.05467L8.62133 4.04134L9.01333 4.02467L9.28667 4.01667L9.716 4.008L10.326 4.002ZM8.52667 8.8662H6.7C6.78667 13.0264 8.86667 15.5265 12.5133 15.5265H12.72V13.1464C14.06 13.2797 15.0733 14.2598 15.48 15.5265H17.3733C16.8533 13.6331 15.4867 12.5864 14.6333 12.1863C15.4867 11.693 16.6867 10.4929 16.9733 8.8662H15.2533C14.88 10.1863 13.7733 11.3863 12.72 11.4996V8.8662H11V13.4797C9.93333 13.213 8.58667 11.9197 8.52667 8.8662Z" fill="white"/>
</svg>
