<svg width="82" height="82" viewBox="0 0 82 82" fill="none" xmlns="http://www.w3.org/2000/svg">
<path fill-rule="evenodd" clip-rule="evenodd" d="M41 0C43.2091 0 45 1.79086 45 4V12C45 14.2091 43.2091 16 41 16C38.7909 16 37 14.2091 37 12V4C37 1.79086 38.7909 0 41 0Z" fill="#01ACFF"/>
<path fill-rule="evenodd" clip-rule="evenodd" d="M41 65C43.2091 65 45 66.9028 45 69.25V77.75C45 80.0972 43.2091 82 41 82C38.7909 82 37 80.0972 37 77.75V69.25C37 66.9028 38.7909 65 41 65Z" fill="#01ACFF"/>
<path fill-rule="evenodd" clip-rule="evenodd" d="M12.1649 11.6879C13.7624 10.0903 16.3526 10.0903 17.9502 11.6879L23.7355 17.4732C25.3331 19.0708 25.3331 21.661 23.7355 23.2585C22.1379 24.8561 19.5478 24.8561 17.9502 23.2585L12.1649 17.4732C10.5673 15.8757 10.5673 13.2855 12.1649 11.6879Z" fill="#01ACFF"/>
<path fill-rule="evenodd" clip-rule="evenodd" d="M58.4476 57.976C60.0452 56.3784 62.6353 56.3784 64.2329 57.976L70.0182 63.7613C71.6158 65.3589 71.6158 67.9491 70.0182 69.5466C68.4207 71.1442 65.8305 71.1442 64.2329 69.5466L58.4476 63.7613C56.85 62.1637 56.85 59.5736 58.4476 57.976Z" fill="#01ACFF"/>
<path fill-rule="evenodd" clip-rule="evenodd" d="M4.76995e-08 41C7.40432e-08 38.7909 1.90279 37 4.25 37L12.75 37C15.0972 37 17 38.7909 17 41C17 43.2091 15.0972 45 12.75 45L4.25 45C1.90279 45 2.13558e-08 43.2091 4.76995e-08 41Z" fill="#01ACFF"/>
<path fill-rule="evenodd" clip-rule="evenodd" d="M66 41C66 38.7909 67.7909 37 70 37L78 37C80.2091 37 82 38.7909 82 41C82 43.2091 80.2091 45 78 45L70 45C67.7909 45 66 43.2091 66 41Z" fill="#01ACFF"/>
<path fill-rule="evenodd" clip-rule="evenodd" d="M12.165 69.538C10.5674 67.9404 10.5674 65.3503 12.165 63.7527L17.9503 57.9674C19.5478 56.3698 22.138 56.3698 23.7356 57.9674C25.3332 59.5649 25.3332 62.1551 23.7356 63.7527L17.9503 69.538C16.3527 71.1356 13.7625 71.1356 12.165 69.538Z" fill="#01ACFF"/>
<path fill-rule="evenodd" clip-rule="evenodd" d="M58.4477 23.258C56.8501 21.6604 56.8501 19.0702 58.4477 17.4727L64.233 11.6873C65.8306 10.0898 68.4207 10.0898 70.0183 11.6873C71.6159 13.2849 71.6159 15.8751 70.0183 17.4727L64.233 23.258C62.6354 24.8555 60.0452 24.8555 58.4477 23.258Z" fill="#01ACFF"/>
</svg>
