<svg width="24" height="11" viewBox="0 0 24 11" fill="none" xmlns="http://www.w3.org/2000/svg">
<path d="M17.7547 9.3021H20.6809C21.518 9.3021 22.1818 8.62536 22.1818 7.76185C22.1818 6.89835 21.518 6.22161 20.6809 6.22161H17.7547V9.3021ZM20.3319 1.69548H17.7547V4.58677H20.3319C21.1373 4.58677 21.7547 3.95854 21.7547 3.14112C21.7547 2.3237 21.1373 1.69548 20.3319 1.69548ZM22.4503 5.29504C23.4143 5.79713 24 6.70915 24 7.85645C24 8.75149 23.6827 9.50584 23.036 10.1025C22.3868 10.6992 21.6132 10.9976 20.6809 10.9976H15.9365V0H20.3319C21.2325 0 22.0085 0.298346 22.6236 0.880485C23.2556 1.46262 23.5729 2.18545 23.5729 3.04895C23.5729 4.00706 23.1946 4.74686 22.4503 5.29504ZM5.23246 11H3.13118L0 0H1.91336L4.23673 8.59625L6.75046 0H8.42709L10.9262 8.59625L13.2495 0H15.1629L12.0317 11H9.92801L7.58999 2.96891L5.2349 10.9976L5.23246 11Z" fill="white"/>
</svg>
